{"title":"The Wolverine 2013 CamRip Hindi MP3 Kely258 SilverRg","uid":8751455,"size":712934014,"categoryP":"video","categoryS":"movies","magnet":"?xt=urn:btih:832e6b15609995d1b3adf5c3974fb7cf65e2bb59&amp;dn=The+Wolverine+2013+CamRip+Hindi+MP3+Kely258+SilverRg&amp;tr=udp%3A%2F%2Ftracker.openbittorrent.com%3A80&amp;tr=udp%3A%2F%2Fopen.demonii.com%3A1337&amp;tr=udp%3A%2F%2Ftracker.coppersurfer.tk%3A6969&amp;tr=udp%3A%2F%2Fexodus.desync.com%3A6969","seeders":1,"leechers":0,"uploader":"TeX","files":-1,"time":1375042777,"description":"General\nComplete name                            : C:The Wolverine 2013 CamRip MP3 Kely258 SilverRgThe Wolverine 2013 CamRip MP3 Kely258 SilverRg.avi\nFormat                                   : AVI\nFormat/Info                              : Audio Video Interleave\nFile size                                : 676 MiB\nDuration                                 : 1h 44mn\nOverall bit rate                         : 902 Kbps\n\nVideo\nID                                       : 0\nFormat                                   : MPEG-4 Visual\nFormat profile                           : Simple@L3\nFormat settings, BVOP                    : No\nFormat settings, QPel                    : No\nFormat settings, GMC                     : No warppoints\nFormat settings, Matrix                  : Default (H.263)\nCodec ID                                 : XVID\nCodec ID/Hint                            : XviD\nDuration                                 : 1h 44mn\nBit rate                                 : 792 Kbps\nWidth                                    : 640 pixels\nHeight                                   : 272 pixels\nDisplay aspect ratio                     : 2.35:1\nFrame rate                               : 23.976 fps\nOriginal frame rate                      : 23.000 fps\nColor space                              : YUV\nChroma subsampling                       : 4:2:0\nBit depth                                : 8 bits\nScan type                                : Progressive\nCompression mode                         : Lossy\nBits/(Pixel*Frame)                       : 0.190\nStream size                              : 594 MiB (88%)\nWriting library                          : XviD 1.2.1 (UTC 2008-12-04)\n\nAudio\nID                                       : 1\nFormat                                   : MPEG Audio\nFormat version                           : Version 1\nFormat profile                           : Layer 3\nMode                                     : Joint stereo\nMode extension                           : MS Stereo\nCodec ID                                 : 55\nCodec ID/Hint                            : MP3\nDuration                                 : 1h 44mn\nBit rate mode                            : Constant\nBit rate                                 : 96.0 Kbps\nChannel(s)                               : 2 channels\nSampling rate                            : 32.0 KHz\nCompression mode                         : Lossy\nStream size                              : 72.0 MiB (11%)\nAlignment                                : Aligned on interleaves\nInterleave, duration                     : 36 ms (0.86 video frame)\nWriting library                          : LAME3.98.2\n\n","torrent":{"xt":"urn:btih:832e6b15609995d1b3adf5c3974fb7cf65e2bb59","amp;dn":"The+Wolverine+2013+CamRip+Hindi+MP3+Kely258+SilverRg","amp;tr":["udp%3A%2F%2Ftracker.openbittorrent.com%3A80","udp%3A%2F%2Fopen.demonii.com%3A1337","udp%3A%2F%2Ftracker.coppersurfer.tk%3A6969","udp%3A%2F%2Fexodus.desync.com%3A6969"],"infoHash":"832e6b15609995d1b3adf5c3974fb7cf65e2bb59","infoHashBuffer":{"type":"Buffer","data":[131,46,107,21,96,153,149,209,179,173,245,195,151,79,183,207,101,226,187,89]},"announce":[],"urlList":[]}}